<svg id="visual" viewBox="0 0 900 900" width="900" height="900" xmlns="http://www.w3.org/2000/svg" xmlns:xlink="http://www.w3.org/1999/xlink" version="1.1"><rect x="0" y="0" width="900" height="900" fill="#001220"></rect><defs><linearGradient id="grad1_0" x1="0%" y1="0%" x2="100%" y2="100%"><stop offset="30%" stop-color="#f4a7b9" stop-opacity="1"></stop><stop offset="70%" stop-color="#f4a7b9" stop-opacity="1"></stop></linearGradient></defs><defs><linearGradient id="grad1_1" x1="0%" y1="0%" x2="100%" y2="100%"><stop offset="30%" stop-color="#f4a7b9" stop-opacity="1"></stop><stop offset="70%" stop-color="#987192" stop-opacity="1"></stop></linearGradient></defs><defs><linearGradient id="grad1_2" x1="0%" y1="0%" x2="100%" y2="100%"><stop offset="30%" stop-color="#43415c" stop-opacity="1"></stop><stop offset="70%" stop-color="#987192" stop-opacity="1"></stop></linearGradient></defs><defs><linearGradient id="grad1_3" x1="0%" y1="0%" x2="100%" y2="100%"><stop offset="30%" stop-color="#43415c" stop-opacity="1"></stop><stop offset="70%" stop-color="#001220" stop-opacity="1"></stop></linearGradient></defs><defs><linearGradient id="grad2_0" x1="0%" y1="0%" x2="100%" y2="100%"><stop offset="30%" stop-color="#f4a7b9" stop-opacity="1"></stop><stop offset="70%" stop-color="#f4a7b9" stop-opacity="1"></stop></linearGradient></defs><defs><linearGradient id="grad2_1" x1="0%" y1="0%" x2="100%" y2="100%"><stop offset="30%" stop-color="#987192" stop-opacity="1"></stop><stop offset="70%" stop-color="#f4a7b9" stop-opacity="1"></stop></linearGradient></defs><defs><linearGradient id="grad2_2" x1="0%" y1="0%" x2="100%" y2="100%"><stop offset="30%" stop-color="#987192" stop-opacity="1"></stop><stop offset="70%" stop-color="#43415c" stop-opacity="1"></stop></linearGradient></defs><defs><linearGradient id="grad2_3" x1="0%" y1="0%" x2="100%" y2="100%"><stop offset="30%" stop-color="#001220" stop-opacity="1"></stop><stop offset="70%" stop-color="#43415c" stop-opacity="1"></stop></linearGradient></defs><g transform="translate(900, 0)"><path d="M0 509.1C-64.4 501 -128.8 493 -194.8 470.4C-260.9 447.8 -328.5 410.6 -353.6 353.6C-378.6 296.5 -360.9 219.5 -379.7 157.3C-398.5 95 -453.8 47.5 -509.1 0L0 0Z" fill="#20293e"></path><path d="M0 381.8C-48.3 375.8 -96.6 369.7 -146.1 352.8C-195.7 335.8 -246.4 308 -265.2 265.2C-283.9 222.4 -270.7 164.6 -284.8 118C-298.9 71.3 -340.4 35.6 -381.8 0L0 0Z" fill="#6c5879"></path><path d="M0 254.6C-32.2 250.5 -64.4 246.5 -97.4 235.2C-130.4 223.9 -164.3 205.3 -176.8 176.8C-189.3 148.2 -180.4 109.8 -189.9 78.6C-199.3 47.5 -226.9 23.8 -254.6 0L0 0Z" fill="#c68ba8"></path><path d="M0 127.3C-16.1 125.3 -32.2 123.2 -48.7 117.6C-65.2 111.9 -82.1 102.7 -88.4 88.4C-94.6 74.1 -90.2 54.9 -94.9 39.3C-99.6 23.8 -113.5 11.9 -127.3 0L0 0Z" fill="#f4a7b9"></path></g><g transform="translate(0, 900)"><path d="M0 -509.1C60.1 -473.7 120.2 -438.2 166.8 -402.8C213.5 -367.4 246.6 -332 301.2 -301.2C355.9 -270.4 432.1 -244.3 470.4 -194.8C508.6 -145.4 508.9 -72.7 509.1 0L0 0Z" fill="#20293e"></path><path d="M0 -381.8C45.1 -355.3 90.2 -328.7 125.1 -302.1C160.1 -275.5 184.9 -249 225.9 -225.9C266.9 -202.8 324.1 -183.2 352.8 -146.1C381.5 -109 381.6 -54.5 381.8 0L0 0Z" fill="#6c5879"></path><path d="M0 -254.6C30.1 -236.8 60.1 -219.1 83.4 -201.4C106.7 -183.7 123.3 -166 150.6 -150.6C177.9 -135.2 216.1 -122.1 235.2 -97.4C254.3 -72.7 254.4 -36.3 254.6 0L0 0Z" fill="#c68ba8"></path><path d="M0 -127.3C15 -118.4 30.1 -109.6 41.7 -100.7C53.4 -91.8 61.6 -83 75.3 -75.3C89 -67.6 108 -61.1 117.6 -48.7C127.2 -36.3 127.2 -18.2 127.3 0L0 0Z" fill="#f4a7b9"></path></g></svg>