<svg id="visual" viewBox="0 0 900 900" width="900" height="900" xmlns="http://www.w3.org/2000/svg" xmlns:xlink="http://www.w3.org/1999/xlink" version="1.1"><rect x="0" y="0" width="900" height="900" fill="#001220"></rect><defs><linearGradient id="grad1_0" x1="0%" y1="0%" x2="100%" y2="100%"><stop offset="30%" stop-color="#001220" stop-opacity="1"></stop><stop offset="70%" stop-color="#001220" stop-opacity="1"></stop></linearGradient></defs><defs><linearGradient id="grad2_0" x1="0%" y1="0%" x2="100%" y2="100%"><stop offset="30%" stop-color="#001220" stop-opacity="1"></stop><stop offset="70%" stop-color="#001220" stop-opacity="1"></stop></linearGradient></defs><g transform="translate(900, 0)"><path d="M0 381.8C-49.8 377.3 -99.7 372.8 -146.1 352.8C-192.6 332.8 -235.6 297.3 -254.6 254.6C-273.5 211.8 -268.3 161.9 -285.5 118.2C-302.7 74.6 -342.3 37.3 -381.8 0L0 0Z" fill="#46644c"></path></g><g transform="translate(0, 900)"><path d="M0 -381.8C46.2 -357.2 92.3 -332.5 126.3 -304.9C160.3 -277.2 182 -246.5 222.7 -222.7C263.5 -199 323.1 -182.1 352.8 -146.1C382.4 -110.2 382.1 -55.1 381.8 0L0 0Z" fill="#46644c"></path></g></svg>