<svg id="visual" viewBox="0 0 900 900" width="900" height="900" xmlns="http://www.w3.org/2000/svg" xmlns:xlink="http://www.w3.org/1999/xlink" version="1.1"><rect x="0" y="0" width="900" height="900" fill="#001220"></rect><defs><linearGradient id="grad1_0" x1="0%" y1="100%" x2="100%" y2="0%"><stop offset="30%" stop-color="#f4a7b9" stop-opacity="1"></stop><stop offset="70%" stop-color="#f4a7b9" stop-opacity="1"></stop></linearGradient></defs><defs><linearGradient id="grad1_1" x1="0%" y1="100%" x2="100%" y2="0%"><stop offset="30%" stop-color="#f4a7b9" stop-opacity="1"></stop><stop offset="70%" stop-color="#6c5879" stop-opacity="1"></stop></linearGradient></defs><defs><linearGradient id="grad1_2" x1="0%" y1="100%" x2="100%" y2="0%"><stop offset="30%" stop-color="#001220" stop-opacity="1"></stop><stop offset="70%" stop-color="#6c5879" stop-opacity="1"></stop></linearGradient></defs><defs><linearGradient id="grad2_0" x1="0%" y1="100%" x2="100%" y2="0%"><stop offset="30%" stop-color="#f4a7b9" stop-opacity="1"></stop><stop offset="70%" stop-color="#f4a7b9" stop-opacity="1"></stop></linearGradient></defs><defs><linearGradient id="grad2_1" x1="0%" y1="100%" x2="100%" y2="0%"><stop offset="30%" stop-color="#6c5879" stop-opacity="1"></stop><stop offset="70%" stop-color="#f4a7b9" stop-opacity="1"></stop></linearGradient></defs><defs><linearGradient id="grad2_2" x1="0%" y1="100%" x2="100%" y2="0%"><stop offset="30%" stop-color="#6c5879" stop-opacity="1"></stop><stop offset="70%" stop-color="#001220" stop-opacity="1"></stop></linearGradient></defs><g transform="translate(900, 900)"><path d="M-413.7 0C-400.7 -40.4 -387.8 -80.9 -375.7 -122.1C-363.5 -163.2 -352.2 -205.1 -327.7 -238.1C-303.1 -271 -265.5 -295 -228.6 -314.7C-191.8 -334.4 -155.7 -349.9 -117.7 -362.4C-79.8 -374.9 -39.9 -384.4 0 -394L0 0Z" fill="#31354d"></path><path d="M-275.8 0C-267.2 -27 -258.5 -53.9 -250.4 -81.4C-242.3 -108.8 -234.8 -136.7 -218.4 -158.7C-202.1 -180.7 -177 -196.7 -152.4 -209.8C-127.9 -222.9 -103.8 -233.2 -78.5 -241.6C-53.2 -249.9 -26.6 -256.3 0 -262.7L0 0Z" fill="#af7e9d"></path><path d="M-137.9 0C-133.6 -13.5 -129.3 -27 -125.2 -40.7C-121.2 -54.4 -117.4 -68.4 -109.2 -79.4C-101 -90.3 -88.5 -98.3 -76.2 -104.9C-63.9 -111.5 -51.9 -116.6 -39.2 -120.8C-26.6 -125 -13.3 -128.1 0 -131.3L0 0Z" fill="#f4a7b9"></path></g><g transform="translate(0, 0)"><path d="M406 0C393.5 39.4 381 78.8 371.9 120.8C362.7 162.9 356.9 207.6 334.7 243.1C312.4 278.7 273.9 305.1 234.5 322.8C195.2 340.5 155.1 349.4 115.9 356.6C76.7 363.9 38.3 369.4 0 375L0 0Z" fill="#31354d"></path><path d="M270.7 0C262.3 26.3 254 52.5 247.9 80.6C241.8 108.6 237.9 138.4 223.1 162.1C208.3 185.8 182.6 203.4 156.4 215.2C130.1 227 103.4 232.9 77.3 237.8C51.1 242.6 25.6 246.3 0 250L0 0Z" fill="#af7e9d"></path><path d="M135.3 0C131.2 13.1 127 26.3 124 40.3C120.9 54.3 119 69.2 111.6 81C104.1 92.9 91.3 101.7 78.2 107.6C65.1 113.5 51.7 116.5 38.6 118.9C25.6 121.3 12.8 123.1 0 125L0 0Z" fill="#f4a7b9"></path></g></svg>