<svg id="visual" viewBox="0 0 900 675" width="900" height="675" xmlns="http://www.w3.org/2000/svg" xmlns:xlink="http://www.w3.org/1999/xlink" version="1.1"><rect x="0" y="0" width="900" height="675" fill="#ffffff"></rect><defs><linearGradient id="grad1_0" x1="25%" y1="0%" x2="100%" y2="100%"><stop offset="23.333333333333336%" stop-color="#fa3ca4" stop-opacity="1"></stop><stop offset="76.66666666666666%" stop-color="#fa3ca4" stop-opacity="1"></stop></linearGradient></defs><defs><linearGradient id="grad1_1" x1="25%" y1="0%" x2="100%" y2="100%"><stop offset="23.333333333333336%" stop-color="#fa3ca4" stop-opacity="1"></stop><stop offset="76.66666666666666%" stop-color="#ff8ac2" stop-opacity="1"></stop></linearGradient></defs><defs><linearGradient id="grad1_2" x1="25%" y1="0%" x2="100%" y2="100%"><stop offset="23.333333333333336%" stop-color="#ffc6e0" stop-opacity="1"></stop><stop offset="76.66666666666666%" stop-color="#ff8ac2" stop-opacity="1"></stop></linearGradient></defs><defs><linearGradient id="grad1_3" x1="25%" y1="0%" x2="100%" y2="100%"><stop offset="23.333333333333336%" stop-color="#ffc6e0" stop-opacity="1"></stop><stop offset="76.66666666666666%" stop-color="#ffffff" stop-opacity="1"></stop></linearGradient></defs><defs><linearGradient id="grad2_0" x1="0%" y1="0%" x2="75%" y2="100%"><stop offset="23.333333333333336%" stop-color="#fa3ca4" stop-opacity="1"></stop><stop offset="76.66666666666666%" stop-color="#fa3ca4" stop-opacity="1"></stop></linearGradient></defs><defs><linearGradient id="grad2_1" x1="0%" y1="0%" x2="75%" y2="100%"><stop offset="23.333333333333336%" stop-color="#ff8ac2" stop-opacity="1"></stop><stop offset="76.66666666666666%" stop-color="#fa3ca4" stop-opacity="1"></stop></linearGradient></defs><defs><linearGradient id="grad2_2" x1="0%" y1="0%" x2="75%" y2="100%"><stop offset="23.333333333333336%" stop-color="#ff8ac2" stop-opacity="1"></stop><stop offset="76.66666666666666%" stop-color="#ffc6e0" stop-opacity="1"></stop></linearGradient></defs><defs><linearGradient id="grad2_3" x1="0%" y1="0%" x2="75%" y2="100%"><stop offset="23.333333333333336%" stop-color="#ffffff" stop-opacity="1"></stop><stop offset="76.66666666666666%" stop-color="#ffc6e0" stop-opacity="1"></stop></linearGradient></defs><g transform="translate(900, 0)"><path d="M0 337.5C-56.3 324.5 -112.5 311.4 -164.5 284.9C-216.5 258.4 -264.2 218.5 -292.3 168.8C-320.4 119 -329 59.5 -337.5 0L0 0Z" fill="#ffe3ef"></path><path d="M0 253.1C-42.2 243.3 -84.4 233.6 -123.4 213.7C-162.4 193.8 -198.1 163.9 -219.2 126.6C-240.3 89.3 -246.7 44.6 -253.1 0L0 0Z" fill="#ffa9d1"></path><path d="M0 168.8C-28.1 162.2 -56.3 155.7 -82.2 142.5C-108.2 129.2 -132.1 109.2 -146.1 84.4C-160.2 59.5 -164.5 29.8 -168.7 0L0 0Z" fill="#ff68b3"></path><path d="M0 84.4C-14.1 81.1 -28.1 77.9 -41.1 71.2C-54.1 64.6 -66 54.6 -73.1 42.2C-80.1 29.8 -82.2 14.9 -84.4 0L0 0Z" fill="#fa3ca4"></path></g><g transform="translate(0, 675)"><path d="M0 -337.5C59.6 -329 119.3 -320.5 168.7 -292.3C218.2 -264 257.6 -216 284.1 -164C310.5 -112 324 -56 337.5 0L0 0Z" fill="#ffe3ef"></path><path d="M0 -253.1C44.7 -246.8 89.4 -240.4 126.6 -219.2C163.7 -198 193.2 -162 213 -123C232.9 -84 243 -42 253.1 0L0 0Z" fill="#ffa9d1"></path><path d="M0 -168.7C29.8 -164.5 59.6 -160.3 84.4 -146.1C109.1 -132 128.8 -108 142 -82C155.2 -56 162 -28 168.8 0L0 0Z" fill="#ff68b3"></path><path d="M0 -84.4C14.9 -82.3 29.8 -80.1 42.2 -73.1C54.6 -66 64.4 -54 71 -41C77.6 -28 81 -14 84.4 0L0 0Z" fill="#fa3ca4"></path></g></svg>