<svg id="visual" viewBox="0 0 900 900" width="900" height="900" xmlns="http://www.w3.org/2000/svg" xmlns:xlink="http://www.w3.org/1999/xlink" version="1.1"><rect x="0" y="0" width="900" height="900" fill="#001220"></rect><defs><linearGradient id="grad1_0" x1="0%" y1="100%" x2="100%" y2="0%"><stop offset="30%" stop-color="#46644c" stop-opacity="1"></stop><stop offset="70%" stop-color="#46644c" stop-opacity="1"></stop></linearGradient></defs><defs><linearGradient id="grad1_1" x1="0%" y1="100%" x2="100%" y2="0%"><stop offset="30%" stop-color="#46644c" stop-opacity="1"></stop><stop offset="70%" stop-color="#0c3b3f" stop-opacity="1"></stop></linearGradient></defs><defs><linearGradient id="grad1_2" x1="0%" y1="100%" x2="100%" y2="0%"><stop offset="30%" stop-color="#001220" stop-opacity="1"></stop><stop offset="70%" stop-color="#0c3b3f" stop-opacity="1"></stop></linearGradient></defs><defs><linearGradient id="grad2_0" x1="0%" y1="100%" x2="100%" y2="0%"><stop offset="30%" stop-color="#46644c" stop-opacity="1"></stop><stop offset="70%" stop-color="#46644c" stop-opacity="1"></stop></linearGradient></defs><defs><linearGradient id="grad2_1" x1="0%" y1="100%" x2="100%" y2="0%"><stop offset="30%" stop-color="#0c3b3f" stop-opacity="1"></stop><stop offset="70%" stop-color="#46644c" stop-opacity="1"></stop></linearGradient></defs><defs><linearGradient id="grad2_2" x1="0%" y1="100%" x2="100%" y2="0%"><stop offset="30%" stop-color="#0c3b3f" stop-opacity="1"></stop><stop offset="70%" stop-color="#001220" stop-opacity="1"></stop></linearGradient></defs><g transform="translate(900, 900)"><path d="M-477.3 0C-460.6 -36.9 -443.9 -73.9 -435.6 -116.7C-427.3 -159.6 -427.4 -208.3 -394 -227.5C-360.7 -246.7 -293.8 -236.4 -267.3 -267.3C-240.8 -298.2 -254.6 -370.4 -236.5 -409.6C-218.4 -448.9 -168.3 -455.2 -123.5 -461C-78.8 -466.8 -39.4 -472.1 0 -477.3L0 0Z" fill="#022632"></path><path d="M-318.2 0C-307.1 -24.6 -296 -49.3 -290.4 -77.8C-284.9 -106.4 -285 -138.9 -262.7 -151.7C-240.4 -164.5 -195.9 -157.6 -178.2 -178.2C-160.5 -198.8 -169.7 -246.9 -157.7 -273.1C-145.6 -299.3 -112.2 -303.5 -82.4 -307.4C-52.5 -311.2 -26.3 -314.7 0 -318.2L0 0Z" fill="#255047"></path><path d="M-159.1 0C-153.5 -12.3 -148 -24.6 -145.2 -38.9C-142.4 -53.2 -142.5 -69.4 -131.3 -75.8C-120.2 -82.2 -97.9 -78.8 -89.1 -89.1C-80.3 -99.4 -84.9 -123.5 -78.8 -136.5C-72.8 -149.6 -56.1 -151.7 -41.2 -153.7C-26.3 -155.6 -13.1 -157.4 0 -159.1L0 0Z" fill="#46644c"></path></g><g transform="translate(0, 0)"><path d="M477.3 0C476.1 45.6 474.9 91.1 441.4 118.3C407.9 145.4 342.1 154.2 316.1 182.5C290.1 210.8 303.8 258.5 294.2 294.2C284.6 329.8 251.6 353.3 220.5 381.9C189.4 410.5 160 444.3 123.5 461C87.1 477.8 43.5 477.5 0 477.3L0 0Z" fill="#022632"></path><path d="M318.2 0C317.4 30.4 316.6 60.7 294.3 78.9C272 97 228.1 102.8 210.7 121.7C193.4 140.5 202.5 172.4 196.1 196.1C189.7 219.9 167.8 235.5 147 254.6C126.2 273.7 106.7 296.2 82.4 307.4C58.1 318.5 29 318.4 0 318.2L0 0Z" fill="#255047"></path><path d="M159.1 0C158.7 15.2 158.3 30.4 147.1 39.4C136 48.5 114 51.4 105.4 60.8C96.7 70.3 101.3 86.2 98.1 98.1C94.9 109.9 83.9 117.8 73.5 127.3C63.1 136.8 53.3 148.1 41.2 153.7C29 159.3 14.5 159.2 0 159.1L0 0Z" fill="#46644c"></path></g></svg>